<mxfile host="app.diagrams.net" modified="2024-02-20T23:41:17.585Z" agent="Mozilla/5.0 (Windows NT 10.0; Win64; x64) AppleWebKit/537.36 (KHTML, like Gecko) Chrome/121.0.0.0 Safari/537.36 Edg/121.0.0.0" etag="78hEZYMNYBraG6cOcZBV" version="23.1.5" type="device">
  <diagram name="PÃ¡gina-1" id="vrvPxNzAaMXnnKGBP2oI">
    <mxGraphModel dx="735" dy="423" grid="1" gridSize="10" guides="1" tooltips="1" connect="1" arrows="1" fold="1" page="1" pageScale="1" pageWidth="827" pageHeight="1169" math="0" shadow="0">
      <root>
        <mxCell id="0" />
        <mxCell id="1" parent="0" />
        <mxCell id="GjBflkEP28HiL4pmk-Qn-12" value="" style="edgeStyle=orthogonalEdgeStyle;rounded=0;orthogonalLoop=1;jettySize=auto;html=1;endArrow=none;endFill=0;" edge="1" parent="1" source="GjBflkEP28HiL4pmk-Qn-1" target="GjBflkEP28HiL4pmk-Qn-11">
          <mxGeometry relative="1" as="geometry" />
        </mxCell>
        <mxCell id="GjBflkEP28HiL4pmk-Qn-15" value="N" style="edgeLabel;html=1;align=center;verticalAlign=middle;resizable=0;points=[];" vertex="1" connectable="0" parent="GjBflkEP28HiL4pmk-Qn-12">
          <mxGeometry x="-0.1755" y="-1" relative="1" as="geometry">
            <mxPoint as="offset" />
          </mxGeometry>
        </mxCell>
        <mxCell id="GjBflkEP28HiL4pmk-Qn-1" value="Curso" style="rounded=0;whiteSpace=wrap;html=1;fillColor=#fff2cc;strokeColor=#d6b656;" vertex="1" parent="1">
          <mxGeometry x="354" y="80" width="120" height="60" as="geometry" />
        </mxCell>
        <mxCell id="GjBflkEP28HiL4pmk-Qn-7" value="" style="edgeStyle=orthogonalEdgeStyle;rounded=0;orthogonalLoop=1;jettySize=auto;html=1;endArrow=none;endFill=0;" edge="1" parent="1" source="GjBflkEP28HiL4pmk-Qn-2" target="GjBflkEP28HiL4pmk-Qn-6">
          <mxGeometry relative="1" as="geometry" />
        </mxCell>
        <mxCell id="GjBflkEP28HiL4pmk-Qn-10" value="N" style="edgeLabel;html=1;align=center;verticalAlign=middle;resizable=0;points=[];" vertex="1" connectable="0" parent="GjBflkEP28HiL4pmk-Qn-7">
          <mxGeometry x="-0.0408" y="-2" relative="1" as="geometry">
            <mxPoint as="offset" />
          </mxGeometry>
        </mxCell>
        <mxCell id="GjBflkEP28HiL4pmk-Qn-2" value="Aluno" style="rounded=0;whiteSpace=wrap;html=1;fillColor=#fff2cc;strokeColor=#d6b656;" vertex="1" parent="1">
          <mxGeometry x="10" y="80" width="120" height="60" as="geometry" />
        </mxCell>
        <mxCell id="GjBflkEP28HiL4pmk-Qn-3" value="Disciplina" style="rounded=0;whiteSpace=wrap;html=1;fillColor=#fff2cc;strokeColor=#d6b656;" vertex="1" parent="1">
          <mxGeometry x="354" y="360" width="120" height="60" as="geometry" />
        </mxCell>
        <mxCell id="GjBflkEP28HiL4pmk-Qn-18" value="" style="edgeStyle=orthogonalEdgeStyle;rounded=0;orthogonalLoop=1;jettySize=auto;html=1;" edge="1" parent="1" source="GjBflkEP28HiL4pmk-Qn-4" target="GjBflkEP28HiL4pmk-Qn-17">
          <mxGeometry relative="1" as="geometry" />
        </mxCell>
        <mxCell id="GjBflkEP28HiL4pmk-Qn-21" value="N" style="edgeLabel;html=1;align=center;verticalAlign=middle;resizable=0;points=[];" vertex="1" connectable="0" parent="GjBflkEP28HiL4pmk-Qn-18">
          <mxGeometry x="-0.2041" y="1" relative="1" as="geometry">
            <mxPoint as="offset" />
          </mxGeometry>
        </mxCell>
        <mxCell id="GjBflkEP28HiL4pmk-Qn-4" value="Professor" style="rounded=0;whiteSpace=wrap;html=1;fillColor=#fff2cc;strokeColor=#d6b656;" vertex="1" parent="1">
          <mxGeometry x="10" y="360" width="120" height="60" as="geometry" />
        </mxCell>
        <mxCell id="GjBflkEP28HiL4pmk-Qn-8" style="edgeStyle=orthogonalEdgeStyle;rounded=0;orthogonalLoop=1;jettySize=auto;html=1;entryX=0;entryY=0.5;entryDx=0;entryDy=0;endArrow=none;endFill=0;" edge="1" parent="1" source="GjBflkEP28HiL4pmk-Qn-6" target="GjBflkEP28HiL4pmk-Qn-1">
          <mxGeometry relative="1" as="geometry" />
        </mxCell>
        <mxCell id="GjBflkEP28HiL4pmk-Qn-9" value="N" style="edgeLabel;html=1;align=center;verticalAlign=middle;resizable=0;points=[];" vertex="1" connectable="0" parent="GjBflkEP28HiL4pmk-Qn-8">
          <mxGeometry x="-0.0232" y="1" relative="1" as="geometry">
            <mxPoint as="offset" />
          </mxGeometry>
        </mxCell>
        <mxCell id="GjBflkEP28HiL4pmk-Qn-6" value="Matricula" style="rhombus;whiteSpace=wrap;html=1;rounded=0;fillColor=#dae8fc;strokeColor=#6c8ebf;" vertex="1" parent="1">
          <mxGeometry x="200" y="70" width="80" height="80" as="geometry" />
        </mxCell>
        <mxCell id="GjBflkEP28HiL4pmk-Qn-13" style="edgeStyle=orthogonalEdgeStyle;rounded=0;orthogonalLoop=1;jettySize=auto;html=1;entryX=0.5;entryY=0;entryDx=0;entryDy=0;endArrow=none;endFill=0;" edge="1" parent="1" source="GjBflkEP28HiL4pmk-Qn-11" target="GjBflkEP28HiL4pmk-Qn-3">
          <mxGeometry relative="1" as="geometry" />
        </mxCell>
        <mxCell id="GjBflkEP28HiL4pmk-Qn-14" value="N" style="edgeLabel;html=1;align=center;verticalAlign=middle;resizable=0;points=[];" vertex="1" connectable="0" parent="GjBflkEP28HiL4pmk-Qn-13">
          <mxGeometry x="-0.0857" y="-1" relative="1" as="geometry">
            <mxPoint as="offset" />
          </mxGeometry>
        </mxCell>
        <mxCell id="GjBflkEP28HiL4pmk-Qn-11" value="Composto" style="rhombus;whiteSpace=wrap;html=1;rounded=0;fillColor=#dae8fc;strokeColor=#6c8ebf;" vertex="1" parent="1">
          <mxGeometry x="374" y="210" width="80" height="80" as="geometry" />
        </mxCell>
        <mxCell id="GjBflkEP28HiL4pmk-Qn-19" style="edgeStyle=orthogonalEdgeStyle;rounded=0;orthogonalLoop=1;jettySize=auto;html=1;entryX=0;entryY=0.5;entryDx=0;entryDy=0;" edge="1" parent="1" source="GjBflkEP28HiL4pmk-Qn-17" target="GjBflkEP28HiL4pmk-Qn-3">
          <mxGeometry relative="1" as="geometry" />
        </mxCell>
        <mxCell id="GjBflkEP28HiL4pmk-Qn-20" value="N" style="edgeLabel;html=1;align=center;verticalAlign=middle;resizable=0;points=[];" vertex="1" connectable="0" parent="GjBflkEP28HiL4pmk-Qn-19">
          <mxGeometry x="-0.0077" y="-2" relative="1" as="geometry">
            <mxPoint as="offset" />
          </mxGeometry>
        </mxCell>
        <mxCell id="GjBflkEP28HiL4pmk-Qn-17" value="Leciona" style="rhombus;whiteSpace=wrap;html=1;rounded=0;fillColor=#dae8fc;strokeColor=#6c8ebf;" vertex="1" parent="1">
          <mxGeometry x="200" y="350" width="80" height="80" as="geometry" />
        </mxCell>
      </root>
    </mxGraphModel>
  </diagram>
</mxfile>
